<?xml version="1.0" ?><svg viewBox="0 0 512 512" xmlns="http://www.w3.org/2000/svg"><title/><g id="Egg_and_bacon"><path d="M489.948,207.084c.0972-.9064,2.5449-3.2572,3.86-4.5173,3.531-3.3917,7.9265-7.61,7.1345-13.7112-.6675-5.1548-4.9881-9.7816-13.6016-14.5629-8.36-4.6468-14.5954-11.8137-21.197-19.4089-12.1672-13.9952-25.9607-29.8579-56.075-32.3133-28.8469-2.3508-38.239,2.55-47.3107,7.2914-5.0154,2.62-9.346,4.8809-17.4827,5.862-7.3413.9064-15.8779-.259-24.9136-1.4692-19.73-2.65-42.0962-5.6478-65.4509,9.0545-11.5833,7.2964-9.5352,17.4814-7.8889,25.6693a49.3629,49.3629,0,0,1,1.2822,9.5177c0,1.9424-9.4092,6.0762-13.4272,7.8442-11.8423,5.2046-28.0625,12.3317-25.8946,27.7362,2.4029,17.0881,20.6092,22.0137,36.6724,26.3567,6.9153,1.8726,13.4485,3.6358,17.9458,6.1309,35.5517,19.7028,71.2793,36.9352,98.7776,36.9352,9.2612,0,17.5947-1.9573,24.6657-6.4347,13.4275-8.4967,29.3426-9.7418,46.1915-11.0567,15.3374-1.2,31.2-2.4454,45.0756-9.677,25.2935-13.1784,17.7754-32.4577,13.7337-42.8171A32.5246,32.5246,0,0,1,489.948,207.084Zm-3.2024-11.8784c-3.3171,3.1825-7.4434,7.1419-6.96,12.73.2439,2.8388,1.4094,5.8271,2.7566,9.2835,4.0491,10.3793,8.2353,21.1122-8.9448,30.0671-12.033,6.27-26.18,7.3811-41.1587,8.5515-17.3469,1.3547-35.2842,2.7592-50.8482,12.6106-26.83,16.9784-87.2465-16.5053-113.0454-30.8092-5.583-3.0929-12.6963-5.0154-20.228-7.0524-13.6516-3.6905-27.7688-7.5105-29.2341-17.9346-1.0125-7.1968,7.6089-11.5747,19.8982-16.9735,10.0393-4.4127,19.5234-8.5813,19.5234-17.1826a57.9518,57.9518,0,0,0-1.4829-11.53c-1.6423-8.163-2.0918-11.6144,3.3232-15.0211,11.92-7.5056,23.5962-9.677,35.0449-9.677,7.9825,0,15.8528,1.0558,23.615,2.0967,9.7007,1.3049,18.8611,2.53,27.4959,1.4892,9.9846-1.21,15.574-4.1288,20.979-6.9527,8.1455-4.2533,15.8291-8.3025,41.7624-6.1609,25.9707,2.1117,37.2564,15.0909,49.2046,28.837,6.89,7.9238,14.0149,16.1167,23.9436,21.63,8.0286,4.4625,8.4244,6.8581,8.437,6.9577C490.9565,191.1614,488.2173,193.7911,486.7456,195.2056Z"/><path d="M277.25,221.9457A77.4564,77.4564,0,0,0,262.09,215.82a5.0986,5.0986,0,1,0-2.9809,9.7518,68.2788,68.2788,0,0,1,13.1921,5.2892,5.0413,5.0413,0,0,0,2.469.6425,5.0984,5.0984,0,0,0,2.479-9.5575Z"/><path d="M443.1738,236.8672c-3.927.4333-7.9961.7521-12.13,1.0758-6.3525.498-12.9194,1.011-19.75,1.9772a5.1009,5.1009,0,0,0,1.4344,10.1c6.51-.9264,12.9143-1.4244,19.11-1.9075,4.2458-.3337,8.4194-.6624,12.4512-1.1057a5.1007,5.1007,0,0,0-1.1158-10.14Z"/><path d="M462.4358,232.6886a44.3023,44.3023,0,0,1-4.9456,1.6635,5.1,5.1,0,0,0,1.3572,10.0157,5.1673,5.1673,0,0,0,1.3621-.1843,56.6562,56.6562,0,0,0,6.0613-2.042,5.1006,5.1006,0,1,0-3.835-9.4529Z"/><path d="M336.24,297.3649c-9.977-5.01-15.9873-5.15-21.2891-5.2693-5.5544-.13-10.3518-.239-20.8781-6.32-10.9334-6.31-16.3272-12.4163-22.0371-18.876-6-6.7884-12.2049-13.8108-24.58-20.9578-12.781-7.376-19.6641-7.5355-25.7366-7.6749-5.5532-.1245-10.3481-.2391-20.873-6.3152-10.9334-6.31-16.326-12.4163-22.035-18.876-5.2392-5.9268-10.6569-12.0577-20.2456-18.3032a12.7774,12.7774,0,0,0-13.4035-.3537l-15.09,8.7134-.0064.0025-19.0713,11.0118-.01.0071-15.21,8.7834a12.8333,12.8333,0,0,0-6.4011,11.0816v8.7207a12.7076,12.7076,0,0,0,5.8745,10.7529c8.7668,5.603,13.5967,11.0666,18.709,16.8539A121.5082,121.5082,0,0,0,124.5608,281.3c-1.2861-.3623-2.6594-.7878-4.16-1.3018-11.9383-4.0939-18.4029-9.0445-25.2461-14.2889-6.2815-4.8162-12.7759-9.7916-23.3894-14.0748a12.774,12.774,0,0,0-13.2207,2.2312L45.4126,265.311l-.0076.0046-16.6,14.4683-.0012.0019L15.5532,291.3336a12.8465,12.8465,0,0,0-4.15,12.1075l1.6748,8.5515a12.7046,12.7046,0,0,0,7.8306,9.428c9.6794,3.8151,15.4692,8.2526,21.5989,12.9492C49.7,339.8782,57.1353,345.5759,70.65,350.2127c13.959,4.7813,20.7461,3.6108,26.7324,2.59,5.4724-.9414,10.2-1.7632,21.6975,2.1864,11.9431,4.0939,18.408,9.0445,25.2535,14.289,7.1931,5.5083,14.63,11.211,28.1459,15.8428,13.9651,4.7862,20.75,3.6258,26.7388,2.59,4.8623-.8367,9.0608-1.5539,17.961,1.0061a13.0553,13.0553,0,0,0,3.6132.513,12.7332,12.7332,0,0,0,8.3785-3.1377l19.7561-17.22,10.1977-8.8873.0037-.005,7.0984-6.1867a41.6085,41.6085,0,0,1,8.7082,3.4474,12.9452,12.9452,0,0,0,5.9031,1.4344,12.7419,12.7419,0,0,0,6.3689-1.7083l15.3274-8.85.0124-.0049,19.07-11.0119.0076-.0059,15.2141-8.7846a12.8283,12.8283,0,0,0,6.4-11.0866v-8.4368A12.8588,12.8588,0,0,0,336.24,297.3649ZM242.481,360.9606l-.3052-1.5589a16.5755,16.5755,0,0,0-12.4224-13.024,44.8611,44.8611,0,0,0-10.2138-1.26,48.6367,48.6367,0,0,0-8.8067.9214c-5.4748.9412-10.2063,1.7531-21.7012-2.1914-11.9431-4.094-18.4077-9.0446-25.2522-14.289-7.1931-5.5134-14.6313-11.211-28.15-15.8479-13.9627-4.7812-20.7461-3.6208-26.7315-2.5848-5.4734.9363-10.2048,1.7531-21.6984-2.1914-11.9422-4.094-18.4056-9.0446-25.25-14.289-5.6267-4.3131-11.4041-8.7357-20.125-12.68l8.02-6.9876c10.2261,3.89,16.2039,8.4718,22.5042,13.2979,7.1916,5.5084,14.6289,11.206,28.1445,15.8429,13.9592,4.7762,20.7436,3.6108,26.7327,2.59,5.4736-.9463,10.2026-1.7631,21.6963,2.1864,11.9431,4.0939,18.4089,9.0446,25.2534,14.289,7.1931,5.5134,14.6313,11.211,28.1484,15.8479,13.96,4.7912,20.7485,3.6257,26.7376,2.59a32.2931,32.2931,0,0,1,14.9887.2291,6.3573,6.3573,0,0,1,4.7154,5.0452l1.4367,7.3362Zm71.4858-31.2226-8.87,5.12v-1.5838a16.5889,16.5889,0,0,0-9.6909-15.1705,42.3288,42.3288,0,0,0-18.5994-3.9893c-5.5544-.1246-10.3508-.2391-20.877-6.3153-10.9333-6.31-16.3271-12.4163-22.0373-18.876-6-6.7884-12.2046-13.8108-24.58-20.9578-12.781-7.376-19.6641-7.5354-25.7366-7.6749-5.5545-.13-10.3494-.239-20.8731-6.3152-10.93-6.31-16.321-12.4113-22.03-18.871-4.6953-5.3142-9.5151-10.7727-17.32-16.316l9.2151-5.3192c9.2861,5.7824,14.2742,11.4253,19.5286,17.3719,6,6.7934,12.2033,13.8109,24.5774,20.9578,12.781,7.3761,19.664,7.5355,25.7365,7.6749,5.5545.13,10.3494.2391,20.8731,6.3153,10.9333,6.31,16.3271,12.4163,22.0373,18.8759,6,6.7884,12.2046,13.8109,24.58,20.9579,12.7824,7.381,19.6655,7.54,25.739,7.68a32.2443,32.2443,0,0,1,14.67,3.1079,6.3538,6.3538,0,0,1,3.6567,5.852Z"/><path d="M352.9121,150.2117c-34.699,0-62.9294,20.1908-62.9294,45.0034,0,21.67,27.6416,38.6485,62.9294,38.6485s62.93-16.9784,62.93-38.6485C415.8416,170.4025,387.6123,150.2117,352.9121,150.2117Zm-37.311,30.2563a37.6679,37.6679,0,0,1,5.0227-3.7752,5.1,5.1,0,0,1,5.4585,8.6162,27.3816,27.3816,0,0,0-3.6656,2.7492,5.1006,5.1006,0,0,1-6.8156-7.59Zm30.2676,30.2165a5.1,5.1,0,0,1-5.0342,4.3231,5.207,5.207,0,0,1-.7808-.06c-11.4038-1.7532-21.7161-6.0115-27.5842-11.3953a5.1016,5.1016,0,0,1,6.8955-7.52c3.4265,3.1476,11.0679,7.117,22.2378,8.8353A5.1016,5.1016,0,0,1,345.8687,210.6845Z"/></g></svg>