<?xml version="1.0" ?><svg viewBox="0 0 512 512" xmlns="http://www.w3.org/2000/svg"><title/><g id="Hot_coffee"><path d="M191.8542,153.1108l24.93,14.3936c.3859.2217,10.1726,5.5856,19.8321,0,2.2537-1.3,2.9336-2.301,2.9934-2.55-.0773-.6549-1.8054-2.3233-2.9934-3.0081l-24.9321-14.3936a18.8041,18.8041,0,0,0-9.5177-2.53,22.8529,22.8529,0,0,0-10.3371,2.545c-1.4692.8741-2.9035,2.4405-2.9658,3.0406C188.9209,150.81,189.6006,151.8109,191.8542,153.1108Z"/><path d="M365.0321,124.5552c-3.4515-14.3992-14.47-27.57-32.119-37.7593-20.6565-11.9233-48.0068-18.49-77.0181-18.49s-56.3613,6.5667-77.0178,18.49c-17.65,10.1921-28.6677,23.3635-32.1179,37.7624-13.5393,13.7872-20.7349,29.98-20.7349,46.9429v15.81c0,16.9607,7.19,32.6062,19.68,45.7559l20.0464,164.1161a5.4862,5.4862,0,0,0,.1095.6027c6.634,26.9144,44.498,46.4478,90.0344,46.4478,45.5391,0,83.4031-19.5334,90.037-46.4478a5.2768,5.2768,0,0,0,.1121-.6176C346.17,396.124,364.1057,249.29,366.0867,233.07c12.4909-13.15,19.6816-28.7969,19.6816-45.7585v-15.81C385.7683,154.5393,378.5728,138.3458,365.0321,124.5552Zm-12.4911,76.266a5.1014,5.1014,0,0,1,.3237,7.2066c-19.24,21.05-56.3962,34.1263-96.97,34.1263-30.2164,0-58.3685-7.0424-79.2715-19.8323a5.1,5.1,0,1,1,5.324-8.7008c19.043,11.6517,45.9946,18.3331,73.9475,18.3331,37.7993,0,72.0725-11.8062,89.4394-30.8092A5.0945,5.0945,0,0,1,352.541,200.8212Zm-24.728-18.54a81.628,81.628,0,0,0,11.2932-7.782,5.1005,5.1005,0,1,1,6.51,7.8541,91.9637,91.9637,0,0,1-12.7051,8.7632c-20.6516,11.9258-48.0043,18.4924-77.0156,18.4924a182.5646,182.5646,0,0,1-33.0926-2.9732,5.1,5.1,0,0,1,1.8526-10.0307,172.3052,172.3052,0,0,0,31.24,2.804C283.1458,199.4092,308.6855,193.3256,327.813,182.2814ZM186.7537,138.7173c.6126-.3512,15.188-8.569,30.03,0l24.9323,14.3935c.8292.4781,8.0883,4.8733,8.0883,11.8809,0,4.43-2.7193,8.2476-8.0883,11.3479a28.6818,28.6818,0,0,1-14.5206,3.8873,33.594,33.594,0,0,1-15.5116-3.8873l-24.93-14.3936c-5.3689-3.1-8.0907-6.9177-8.0907-11.3479C178.663,143.5906,185.927,139.1953,186.7537,138.7173Zm-24.1154,33.5559a5.1025,5.1025,0,0,1,7.2067-.264,77.9936,77.9936,0,0,0,14.1321,10.2722,105.0766,105.0766,0,0,0,10.28,5.1847,5.0991,5.0991,0,1,1-4.0988,9.3383,115.7893,115.7893,0,0,1-11.2808-5.6877A88.1579,88.1579,0,0,1,162.9023,179.48,5.0978,5.0978,0,0,1,162.6383,172.2732ZM336.23,395.3956l-.2041-.05c-5.4337,22.0561-39.8836,38.6884-80.1309,38.6884-40.0752,0-74.4006-16.4879-80.0585-38.4046l-2.1578-17.6716c16.8677,16.7422,47.3755,27.58,82.2163,27.58,34.8435,0,65.3538-10.84,82.2215-27.584C336.9746,387.3749,336.3857,392.5164,336.23,395.3956ZM352.8711,257.135c-6.7648,26.7891-48.389,46.9686-96.9761,46.9686-48.5931,0-90.2212-20.1855-96.9758-46.98l-1.6809-13.7594c23.64,18.0417,58.7683,29.3081,98.6567,29.3081s75.0183-11.2652,98.6582-29.3059Z"/></g></svg>