<?xml version="1.0" ?><svg viewBox="0 0 512 512" xmlns="http://www.w3.org/2000/svg"><title/><g id="Donut"><path d="M434.6453,235.7886c.0187-.401.1034-.7782.1034-1.1866,0-58.5977-80.2329-106.2708-178.8536-106.2708S77.0427,176.0043,77.0427,234.602c0,.41.0847.7869.1034,1.1891a83.73,83.73,0,0,0-4.099,25.7054c0,67.4231,82.0259,122.2755,182.8492,122.2755S438.7455,328.92,438.7455,261.4965A83.7443,83.7443,0,0,0,434.6453,235.7886Zm-45.9958-14.38,7.5977-7.5977a5.0994,5.0994,0,1,1,7.2117,7.2117l-7.5977,7.5977a5.0994,5.0994,0,0,1-7.2117-7.2117Zm-52.6461-47.9744,7.5977-7.5977a5.1,5.1,0,0,1,7.2118,7.2118l-7.5978,7.5977a5.0995,5.0995,0,1,1-7.2117-7.2118Zm0,47.9744,7.5977-7.5977a5.0995,5.0995,0,0,1,7.2118,7.2117l-7.5978,7.5977a5.0994,5.0994,0,1,1-7.2117-7.2117Zm0,47.9769,7.5977-7.5977A5.0995,5.0995,0,1,1,350.8129,269l-7.5978,7.5977a5.0994,5.0994,0,0,1-7.2117-7.2117ZM292.4716,269l-7.5964,7.5977a5.1,5.1,0,0,1-7.2142-7.2117l7.5964-7.5977A5.1,5.1,0,0,1,292.4716,269ZM234.13,269l-7.5977,7.5977a5.0994,5.0994,0,0,1-7.2117-7.2117l7.5977-7.5977A5.0994,5.0994,0,1,1,234.13,269Zm21.7659-69.4078c38.62,0,62.3343,12.476,62.3343,21.4185,0,3.5261-3.7372,7.5939-10.57,11.2372-13.4143-5.778-32.04-9.0956-51.7639-9.0956s-38.3508,3.3176-51.7639,9.0956c-6.8332-3.6433-10.57-7.7111-10.57-11.2372C193.562,212.0678,217.2765,199.5918,255.8963,199.5918Zm37.0174,38.3209a141.0766,141.0766,0,0,1-37.0174,4.5161,141.11,141.11,0,0,1-37.0179-4.5161,152.5069,152.5069,0,0,1,74.0353,0ZM277.661,173.4343l7.5964-7.5977a5.1,5.1,0,0,1,7.2142,7.2118l-7.5964,7.5977a5.1,5.1,0,0,1-7.2142-7.2118Zm-58.34,0,7.5977-7.5977a5.0995,5.0995,0,0,1,7.2117,7.2118l-7.5977,7.5977a5.0995,5.0995,0,0,1-7.2117-7.2118Zm-58.3412,0,7.5965-7.5977a5.1,5.1,0,0,1,7.2142,7.2118l-7.5965,7.5977a5.1,5.1,0,0,1-7.2142-7.2118Zm0,47.9744,7.5965-7.5977a5.1,5.1,0,0,1,7.2142,7.2117L168.194,228.62a5.1,5.1,0,0,1-7.2142-7.2117Zm0,47.9769,7.5965-7.5977A5.1,5.1,0,0,1,175.7905,269l-7.5965,7.5977a5.1,5.1,0,0,1-7.2142-7.2117Zm-52.6473-47.9769,7.5965-7.5977a5.1,5.1,0,0,1,7.2142,7.2117l-7.5965,7.5977a5.1,5.1,0,0,1-7.2142-7.2117ZM255.8963,373.572c-95.1991,0-172.6492-50.2778-172.6492-112.0755a73.5831,73.5831,0,0,1,.5977-8.9281,116.5551,116.5551,0,0,0,9.6621,10.98,115.4181,115.4181,0,0,1,8.8939,9.9833c2.48,3.29,4.5583,7.65,6.7572,12.2669,4.2807,8.9823,9.133,19.1648,18.87,25.1688,7.3686,4.5422,16.5874,4.9879,25.5037,5.4188,6.4871.3112,13.1958.635,18.8859,2.54,4.8361,1.6186,9.6983,5.0975,14.8456,8.7806,7.4607,5.3365,15.1742,10.8549,24.6645,12.2893,8.4768,1.2874,16.9722-1.4269,25.1962-4.0492,6.5916-2.0992,12.816-4.0815,18.7714-4.0815,5.9579,0,12.1859,1.9823,18.78,4.084,6.7747,2.1566,13.74,4.3754,20.7175,4.3754a29.825,29.825,0,0,0,4.4824-.3287c9.49-1.4344,17.2-6.9528,24.6583-12.2893,5.1448-3.6831,10.0083-7.162,14.8418-8.7806,5.6927-1.905,12.3989-2.2288,18.8859-2.54,8.9151-.4309,18.1339-.8766,25.505-5.4188,9.7294-5.999,14.58-16.1766,18.8586-25.1588,2.1988-4.6144,4.2757-8.9748,6.756-12.2644a115.6977,115.6977,0,0,1,8.8976-9.9859,116.6211,116.6211,0,0,0,9.67-10.9906,73.6213,73.6213,0,0,1,.5976,8.9287C428.5455,323.2942,351.0942,373.572,255.8963,373.572Z"/></g></svg>