<?xml version="1.0" ?><svg viewBox="0 0 512 512" xmlns="http://www.w3.org/2000/svg"><title/><g id="Ice_cream"><path d="M267.4512,376.7958c-8.6986.6052-17.774.7834-26.5812.5258a5.4841,5.4841,0,0,0-.3194,10.9636c2.7285.0793,5.5105.12,8.2682.12,6.5081,0,13.0333-.2245,19.3939-.6671a5.4843,5.4843,0,0,0-.7615-10.9421Z"/><path d="M388.144,229.8541c0-11.4071-7.5983-22.0565-20.77-31.09-6.98,8.8844-17.33,16.8615-30.7116,23.5123-24.1006,11.9855-55.909,18.5865-89.5621,18.5865a244.4758,244.4758,0,0,1-36.5249-2.6923,5.485,5.485,0,0,1,.8377-10.9086,5.9135,5.9135,0,0,1,.8376.06,232.5343,232.5343,0,0,0,34.85,2.5726c54.6825,0,100.8-18.2176,115.1486-43.1059v-.01c.08-.1695.1694-.339.2592-.4985a32.4714,32.4714,0,0,0,4.3474-15.9441c0-14.04-9.7718-26.9325-26.1248-37.1131-.01.01,0,.01.01.02-5.3048,8.9841-13.6506,17.1107-24.7189,23.8413-.3589.2094-.7179.4288-1.0768.6382a5.4877,5.4877,0,1,1-5.5939-9.4428c11.5567-6.82,20.0921-15.5153,24.27-25.2872a.3066.3066,0,0,0-.01.09,8.4039,8.4039,0,0,1,.4488-1.6652,34.2095,34.2095,0,0,0-.4986-26.5735c-5.2948-12.8829-16.2732-29.3255-28.4082-45.1a484.7083,484.7083,0,0,0-35.418-41.0319,10.599,10.599,0,0,0-18.0581,6.0925c-1.3162,9.3132-5.195,18.4668-13.1721,24.39a30.0064,30.0064,0,0,1-6.4813,3.53C205.54,53.5517,180.6812,72.3277,180.6812,72.3277A59.0819,59.0819,0,0,0,163.84,88.9a36.28,36.28,0,0,0-6.1423,19.8329,34.5764,34.5764,0,0,0,2.453,12.6834,7.5525,7.5525,0,0,1,.4288,1.5755c10.0111,23.3827,44.95,40.6529,86.5208,40.6529a144.6864,144.6864,0,0,0,23.9909-1.9843,5.4884,5.4884,0,0,1,1.7948,10.8289A156.0482,156.0482,0,0,1,247.1,174.6131c-25.8556,0-50.3351-6.232-68.9116-17.53-11.0681-6.7306-19.4141-14.8572-24.7189-23.8413l.02-.02c-16.3628,10.1706-26.1447,23.0735-26.1447,37.1131a32.4815,32.4815,0,0,0,4.3575,15.9441c.09.16.1795.329.2592.4985v.01c6.252,10.8488,18.5666,20.4212,34.9693,27.79a5.4844,5.4844,0,0,1-4.4372,10.0311c-1.6751-.7578-3.3305-1.5355-4.9457-2.3333-13.3915-6.6508-23.7317-14.6279-30.7116-23.5123.01-.01.03-.02.04-.04-13.192,9.054-20.81,19.7133-20.81,31.13a28.6787,28.6787,0,0,0,4.9494,15.6616v77.5116c0,16.3031,13.2762,31.431,37.4011,42.6409,41.7995,26.6629,41.6642,111.1448,41.6579,112.0475,0,16.9969,24.5158,29.814,57.0257,29.814,32.5153,0,57.0355-12.8171,57.0355-29.8671a241.9149,241.9149,0,0,1,5.2077-46.683c4.7626-22.244,14.9442-51.5722,36.4215-65.2993,24.14-11.21,37.4264-26.345,37.4264-42.653V245.51A28.6815,28.6815,0,0,0,388.144,229.8541Zm-74.4357-122.607a6.8422,6.8422,0,1,1-8.8446-3.9187A6.8423,6.8423,0,0,1,313.7083,107.2471ZM276.3557,64.919c-.5583-.5185-2.2435-1.9743-2.5128-2.1738-.1395-.11-.668-.5085-.6879-.5085A6.9812,6.9812,0,0,1,281.87,51.3281c.3391.2992,3.59,3.6994,4.1979,4.4273q1.84,2.1687,3.46,4.4273a91.87,91.87,0,0,1,5.903,9.3131c.8375,1.6253,4.6765,9.8218,4.6765,9.8218.7379,1.6552,1.2963,3.37,1.9344,5.0554.5984,1.6851,1.1169,3.41,1.6652,5.1152a4.5568,4.5568,0,0,1-8.4656,3.3305l-.12-.2693c-.698-1.4857-1.3363-2.9914-2.0542-4.4471-.7578-1.4459-1.4358-2.9217-2.2735-4.3176a86.174,86.174,0,0,0-5.155-8.1765,81.8309,81.8309,0,0,0-6.0028-7.3887C278.5793,67.0628,277.4726,65.966,276.3557,64.919Zm93.8728,258.1083c0,10.8934-11.058,22.2246-30.3374,31.0877a6.49,6.49,0,0,0-1.0546.61c-47.8642,30.52-47.6938,119.2713-47.6636,122.9911,0,6.8708-17.1693,16.8514-44.0728,16.8514-26.8981,0-44.0631-9.9806-44.0631-16.7983.0247-3.03.1322-60.8833-24.6307-99.3492a200.1316,200.1316,0,0,0,35.76,7.8051,5.4841,5.4841,0,0,0,1.412-10.8769c-21.5362-2.7947-40.32-8.32-52.8917-15.5572a5.4924,5.4924,0,0,0-.9151-.41,66.4739,66.4739,0,0,0-6.1549-4.494,6.4923,6.4923,0,0,0-1.2357-.7415c-19.3218-8.8685-30.4032-20.21-30.4032-31.1174V266.8224c26.7307,17.9,72.9156,29.0282,123.1255,29.0282a326.8783,326.8783,0,0,0,43.3525-2.85v16.0821a8.7929,8.7929,0,1,0,17.5858,0V290.0911c6.51-1.29,12.7839-2.7842,18.7775-4.4669v33.0963a8.793,8.793,0,0,0,17.5859,0V279.8313a131.0947,131.0947,0,0,0,25.8233-13.0084Z"/></g></svg>