<?xml version="1.0" ?><svg viewBox="0 0 512 512" xmlns="http://www.w3.org/2000/svg"><title/><g id="Noodle"><path d="M469.4875,289.123a5.0991,5.0991,0,0,0-2.55-4.4177l-13.1958-7.6189a206.46,206.46,0,0,0,15.6836-79.0786c0-67.61-93.1572-122.6167-207.6607-122.6167-44.2166,0-85.2158,8.2284-118.9311,22.1918L97.9868,71.6907a5.0982,5.0982,0,0,0-5.1,0L83.05,77.3684a5.0994,5.0994,0,0,0-2.55,4.4177V93.144a5.1,5.1,0,0,0,2.55,4.4178l28.0525,16.1952q-3.9333,2.4489-7.6376,5.0186L59.9485,93.6521a5.0977,5.0977,0,0,0-5.1,0L45.0121,99.33a5.0991,5.0991,0,0,0-2.55,4.4176v11.3581a5.0992,5.0992,0,0,0,2.55,4.4176L79.42,139.3887c-16.1319,17.4253-25.3157,37.4-25.3157,58.6191,0,80.01,45.5139,149.5486,111.9833,184.2139v1.6622c0,32.3257,42.0277,57.6489,95.6773,57.6489s95.6773-25.3232,95.6773-57.6489v-1.6622a208.9567,208.9567,0,0,0,63.03-50.4971l8.4294-4.8671a5.1021,5.1021,0,0,0,2.55-4.4177v-4.95c3.1276-4.43,6.101-8.9743,8.8825-13.65l11.6668,6.7361a5.1065,5.1065,0,0,0,5.1,0l9.8388-5.6777a5.0993,5.0993,0,0,0,2.55-4.4177ZM261.7646,104.6688c96.6933,0,178.3829,42.7425,178.3829,93.3366,0,10.5741-3.6109,20.7961-10.1377,30.3662-18.8238-47.1215-88.6075-81.5954-168.2452-81.5954a272.6609,272.6609,0,0,0-30.7221,1.7342l-55.1947-31.8666A305.4276,305.4276,0,0,1,261.7646,104.6688ZM418.4924,230.8813c-6.1657-1.1105-13.8481-2.4926-23.5351,3.1a30.5152,30.5152,0,0,0-6.7735,5.2554l-9.8315-5.6762c1.75-4.7594,3.5537-8.6278,9.4231-12.0154,6.4547-3.7279,10.9446-2.9185,16.6247-1.8976a45.0844,45.0844,0,0,0,10.11.9734,70.3079,70.3079,0,0,1,5.5957,10.5176C419.5657,231.0458,419.0415,230.9805,418.4924,230.8813Zm.5081,10.4385a113.6665,113.6665,0,0,1-11.0217,9.346l-10.535-6.0832a23.1916,23.1916,0,0,1,2.6135-1.7655c6.4522-3.7254,10.942-2.9161,16.6273-1.8975C417.4316,241.054,418.2085,241.1907,419.0005,241.32ZM290.751,171.813c6.1682,1.1131,13.8381,2.5,23.5127-3.0853a30.8242,30.8242,0,0,0,6.2654-4.8526c3.79.91,7.53,1.8882,11.1911,2.9621-.107.2929-.2241.5942-.3286.8844-1.9548,5.4312-3.4963,9.7219-9.946,13.4448-6.4423,3.7179-10.9247,2.9061-16.5975,1.88-4.135-.7474-8.9748-1.5682-14.6264-.3685l-15.7968-9.1209C280.7178,170.0176,285.16,170.802,290.751,171.813ZM269.0535,164.86a32.2134,32.2134,0,0,0-4.3778,3.0686l-11.0417-6.3754a19.8454,19.8454,0,0,1,2.7144-4.5c1.8028-.0383,3.6057-.0778,5.4162-.0778a254.7,254.7,0,0,1,45.189,4.048c-5.3078,2.3838-9.3869,1.655-14.3873.7507C286.403,160.6643,278.7305,159.2772,269.0535,164.86Zm57.492,25.1413c9.6845-5.593,12.3241-12.9318,14.4434-18.8286.1544-.4268.3336-.7908.4856-1.2068q5.7189,1.967,11.1637,4.1929c-5.3191,4.822-7.3213,10.2578-8.9673,14.834-1.9524,5.4311-3.4939,9.7219-9.9436,13.4448a20.375,20.375,0,0,1-5.4262,2.2246l-18.4552-10.655A28.3009,28.3009,0,0,0,326.5455,190.0017Zm26.7253,2.4429c1.9523-5.4312,3.4937-9.7218,9.9409-13.4423.0549-.0314.1035-.0494.157-.08A169.1658,169.1658,0,0,1,379.68,187.89a29.9586,29.9586,0,0,0-9.2861,3.5482c-9.6846,5.5906-12.3217,12.9318-14.441,18.8286a31.0891,31.0891,0,0,1-3.8547,8.1354L339.2607,210.99C348.5618,205.4355,351.1838,198.2454,353.2708,192.4446ZM365.55,213.7162c1.9524-5.4312,3.4964-9.7194,9.9437-13.4423,6.4521-3.73,10.942-2.9186,16.6271-1.8976.8978.1623,1.8042.2951,2.707.4386a108.4337,108.4337,0,0,1,11.2259,10.7681c-6.1459-1.1057-13.7734-2.42-23.3783,3.1272a29.0064,29.0064,0,0,0-13.2605,15.69l-8.45-4.8789A42.832,42.832,0,0,0,365.55,213.7162ZM83.3816,198.0054c0-15.7156,7.8928-30.6707,21.6576-43.8255L143.11,176.16c-23.8291,13.8741-41.4624,31.8622-49.588,52.213C86.9924,218.8029,83.3816,208.58,83.3816,198.0054ZM190.123,220.92c-1.95,5.4287-3.4913,9.72-9.9335,13.4374-6.44,3.7229-10.9222,2.911-16.6049,1.8851-6.1633-1.1131-13.8307-2.5-23.5153,3.0853-9.413,5.4357-12.1547,12.517-14.2465,18.327q-4.5517-2.8189-8.67-5.82c3.0294-3.84,4.496-7.8506,5.8084-11.5109,1.95-5.4287,3.4888-9.7143,9.9261-13.4322,6.4422-3.718,10.93-2.9111,16.6024-1.8827,6.1659,1.1156,13.8407,2.5,23.5177-3.0879,9.68-5.5906,12.3142-12.9267,14.4334-18.8236.137-.38.27-.7412.4035-1.11l9.7143,5.608C193.38,212.022,191.5985,216.8157,190.123,220.92Zm9.6,3.449c1.6136-4.492,2.9907-8.1975,7.0522-11.4517l14.4709,8.3539a32.4458,32.4458,0,0,0-4.4077,2.0968c-9.68,5.5906-12.3143,12.9268-14.4335,18.8236-1.95,5.4287-3.4912,9.7194-9.9335,13.4374-6.4372,3.72-10.92,2.9086-16.6048,1.885-6.1609-1.113-13.8333-2.5-23.5154,3.0855a29.8614,29.8614,0,0,0-8.2339,6.878q-4.8318-2.2516-9.35-4.6748c.1482-.4034.3287-.8013.4731-1.2047,1.95-5.4312,3.4888-9.7168,9.9286-13.4348,6.4447-3.72,10.9321-2.9136,16.6024-1.8826,6.1658,1.1156,13.8382,2.4977,23.5179-3.0879C194.969,237.6025,197.6038,230.2664,199.7229,224.3694Zm-21.8817-24.7205c-1.95,5.4287-3.4913,9.7194-9.9335,13.4373-6.4372,3.7253-10.9222,2.9111-16.605,1.8851-6.1609-1.1131-13.8381-2.5-23.5152,3.0853-9.6746,5.5882-12.3092,12.9244-14.4259,18.8213-1.148,3.1968-2.2039,6.0686-4.2359,8.6494a100.78,100.78,0,0,1-8.0486-7.7053c3.4366-11.791,10.6583-22.895,20.8409-32.8811,5.7475-2.8884,9.9922-2.164,15.2924-1.2055,6.1659,1.1156,13.8384,2.5,23.5179-3.0855a28.8035,28.8035,0,0,0,9.65-8.7472l8.5191,4.9191C178.521,197.7881,178.1675,198.7393,177.8412,199.6489Zm-22.2129-7.8343c-6.4373,3.72-10.92,2.9111-16.6049,1.8851-.9836-.1783-2.0246-.3542-3.09-.5167a155.1134,155.1134,0,0,1,17.7056-10.9446l7.874,4.5459A19.0884,19.0884,0,0,1,155.6283,191.8146Zm43.5841,118.0421a5.0985,5.0985,0,0,1-6.0215,3.9695c-37.3909-7.67-70.125-21.4311-94.6637-39.7965a5.1005,5.1005,0,0,1,6.111-8.168c23.3435,17.474,54.6731,30.6025,90.6047,37.9736A5.0965,5.0965,0,0,1,199.2124,309.8567ZM188.1508,278.786c-4.34-.7818-9.2513-1.5489-15.0087-.24q-9.921-3.0546-19.0328-6.731a22.063,22.063,0,0,1,3.3419-2.38c6.4421-3.7179,10.93-2.911,16.6023-1.8826,6.1684,1.1156,13.8383,2.5,23.5178-3.0879,9.68-5.5906,12.3142-12.9269,14.4333-18.8237,1.95-5.4287,3.4915-9.7194,9.9336-13.4373,5.5408-3.1993,9.6372-3.044,14.284-2.285l21.446,12.3823c-1.6262-.1482-3.27-.428-5.0328-.7464-6.1659-1.1108-13.8358-2.4977-23.5177,3.0853-9.68,5.5906-12.3142,12.9269-14.4309,18.8237-1.95,5.4312-3.4915,9.7194-9.9336,13.4373C198.3083,280.6238,193.8235,279.81,188.1508,278.786Zm38.8153,5.9517c-.5679,1.5807-1.16,3.0792-1.8155,4.526q-8.8527-1.0113-17.3918-2.4921c.6973-.3412,1.3747-.6207,2.0943-1.0353,9.68-5.5905,12.3143-12.9269,14.431-18.8237,1.95-5.4312,3.4913-9.7194,9.9334-13.4373,6.4449-3.718,10.9322-2.9111,16.6026-1.8826,5.4759.9886,12.1472,2.1652,20.3551-1.4936l14.0973,8.1391a21.6966,21.6966,0,0,1-3.75,2.7028c-6.4471,3.7229-10.9321,2.9086-16.6049,1.8852-6.1683-1.1132-13.8332-2.5027-23.5178,3.0879C231.72,271.5021,229.0852,278.8408,226.9661,284.7377Zm66.8354-2.5251c-6.4424,3.72-10.9248,2.9111-16.6025,1.8851-6.1682-1.1106-13.8382-2.4977-23.5152,3.0878a31.6326,31.6326,0,0,0-5.2694,3.8581c-4.242-.1737-8.4569-.4079-12.62-.7415.2664-.7109.5206-1.4182.772-2.1179,1.95-5.4287,3.4888-9.7169,9.9336-13.4348,6.4472-3.72,10.93-2.9061,16.6023-1.8851,6.1733,1.1156,13.8408,2.5,23.52-3.0879a29.8814,29.8814,0,0,0,7.7372-6.2929l9.3433,5.3944C301.7677,274.2556,300.2039,278.5171,293.8015,282.2126Zm23.5675,4.27q-7.3884,1.3166-15.0311,2.29c6.1123-4.6056,8.5715-9.9859,10.332-14.716l8.7333,5.042A32.8616,32.8616,0,0,0,317.369,286.4822Zm99.1437,35.7485L52.6621,112.162v-5.4686l4.7363-2.7343L421.2491,314.03l.0026,5.466ZM131.5353,134.9832c2.7491-1.55,5.6043-3.0457,8.54-4.4981l46.77,27.0026c-3.5386,1.063-6.9951,2.2171-10.403,3.4225Zm56.9516,32.8806q3.6234-1.124,7.3338-2.1416a48.6919,48.6919,0,0,1,5.8744.7817c.3387.061.7221.1126,1.0683.174L223.37,178.5756a36.904,36.904,0,0,1-7.5777-.8383,40.9717,40.9717,0,0,0-11.6493-.834ZM224.62,188.7255a28.3242,28.3242,0,0,0,10.987-3.0845l13.7,7.9093a20.4057,20.4057,0,0,1-4.6306,3.5759,22.7312,22.7312,0,0,1-3.0056,1.4441ZM251.9755,204.52a28.6428,28.6428,0,0,0,6.3277-5.7749l8.9722,5.1794c-.1245.344-.2576.6985-.3784,1.0337a39.706,39.706,0,0,1-2.8164,6.55ZM272.896,216.598a45.5284,45.5284,0,0,0,3.3468-7.4962l9.057,5.2293a29.9289,29.9289,0,0,0-4.2109,6.9971Zm17.09,9.8673a19.6163,19.6163,0,0,1,4.3506-6.9172l13.8281,7.9842c-.75.3617-1.4915.6951-2.2685,1.1427a31.5216,31.5216,0,0,0-5.349,3.8873ZM310.11,238.0837c.3014-.19.5629-.3859.8866-.5733a18.1292,18.1292,0,0,1,9.7392-2.7212l20.8931,12.0636c-4.5422-.8211-9.9037-1.7559-16.2712.0337Zm33.6916,19.4517a29.17,29.17,0,0,0,14.1608-1.2527l14.8044,8.5481a24.4047,24.4047,0,0,1-2.1965,1.4219,19.1345,19.1345,0,0,1-7.2217,2.5686ZM454.551,300.2693,90.7,90.2006V84.7321l4.7364-2.7343L459.2875,292.069l.0025,5.466Z"/></g></svg>